<mxfile host="app.diagrams.net" modified="2023-02-07T18:29:26.086Z" agent="5.0 (Windows NT 10.0; Win64; x64) AppleWebKit/537.36 (KHTML, like Gecko) Chrome/109.0.0.0 Safari/537.36 Edg/109.0.1518.78" etag="2etLc8aGhitJ67Kgduvn" version="20.8.17" type="github">
  <diagram name="第 1 页" id="1EB3_0H8YYV8rfO5gori">
    <mxGraphModel dx="1181" dy="646" grid="1" gridSize="10" guides="1" tooltips="1" connect="1" arrows="1" fold="1" page="1" pageScale="1" pageWidth="827" pageHeight="1169" math="0" shadow="0">
      <root>
        <mxCell id="0" />
        <mxCell id="1" parent="0" />
        <mxCell id="-kPq2Exw5MDwtVTnVc70-168" value="" style="group" parent="1" vertex="1" connectable="0">
          <mxGeometry x="260" y="290" width="1015" height="648.4278156646176" as="geometry" />
        </mxCell>
        <mxCell id="y4W07gEEPv4VkjId5-DS-26" value="" style="edgeStyle=none;rounded=0;orthogonalLoop=1;jettySize=auto;html=1;startArrow=none;startFill=0;endArrow=block;endFill=1;fontFamily=Times New Roman;" parent="-kPq2Exw5MDwtVTnVc70-168" target="y4W07gEEPv4VkjId5-DS-14" edge="1">
          <mxGeometry relative="1" as="geometry">
            <mxPoint x="270" y="195" as="sourcePoint" />
            <Array as="points">
              <mxPoint x="230" y="195" />
            </Array>
          </mxGeometry>
        </mxCell>
        <mxCell id="-kPq2Exw5MDwtVTnVc70-380" style="edgeStyle=orthogonalEdgeStyle;rounded=0;orthogonalLoop=1;jettySize=auto;html=1;entryX=0.5;entryY=0;entryDx=0;entryDy=0;fontFamily=宋体;fontSize=26;endArrow=block;endFill=1;" parent="-kPq2Exw5MDwtVTnVc70-168" source="y4W07gEEPv4VkjId5-DS-14" target="-kPq2Exw5MDwtVTnVc70-170" edge="1">
          <mxGeometry relative="1" as="geometry" />
        </mxCell>
        <mxCell id="y4W07gEEPv4VkjId5-DS-14" value="" style="verticalLabelPosition=bottom;verticalAlign=top;html=1;shape=mxgraph.basic.rect;fillColor2=none;strokeWidth=1;size=20;indent=5;fillStyle=auto;rotation=90;fontFamily=Times New Roman;" parent="-kPq2Exw5MDwtVTnVc70-168" vertex="1">
          <mxGeometry x="260" y="180" width="105" height="30" as="geometry" />
        </mxCell>
        <mxCell id="y4W07gEEPv4VkjId5-DS-24" value="" style="verticalLabelPosition=bottom;verticalAlign=top;html=1;shape=mxgraph.basic.rect;fillColor2=none;strokeWidth=1;size=20;indent=5;fillStyle=auto;rotation=90;fontFamily=Times New Roman;" parent="-kPq2Exw5MDwtVTnVc70-168" vertex="1">
          <mxGeometry x="260" y="300" width="105" height="30" as="geometry" />
        </mxCell>
        <mxCell id="y4W07gEEPv4VkjId5-DS-25" value="" style="verticalLabelPosition=bottom;verticalAlign=top;html=1;shape=mxgraph.basic.rect;fillColor2=none;strokeWidth=1;size=20;indent=5;fillStyle=auto;rotation=90;fontFamily=Times New Roman;" parent="-kPq2Exw5MDwtVTnVc70-168" vertex="1">
          <mxGeometry x="260" y="60" width="105" height="30" as="geometry" />
        </mxCell>
        <mxCell id="y4W07gEEPv4VkjId5-DS-27" value="" style="edgeStyle=none;orthogonalLoop=1;jettySize=auto;html=1;rounded=0;startArrow=none;startFill=0;endArrow=block;endFill=1;exitX=0.853;exitY=0.5;exitDx=0;exitDy=0;exitPerimeter=0;entryX=0.5;entryY=1.006;entryDx=0;entryDy=0;entryPerimeter=0;fontFamily=Times New Roman;" parent="-kPq2Exw5MDwtVTnVc70-168" source="y4W07gEEPv4VkjId5-DS-11" target="y4W07gEEPv4VkjId5-DS-25" edge="1">
          <mxGeometry width="80" relative="1" as="geometry">
            <mxPoint x="240" y="195" as="sourcePoint" />
            <mxPoint x="290" y="40" as="targetPoint" />
            <Array as="points">
              <mxPoint x="250" y="195" />
              <mxPoint x="250" y="75" />
            </Array>
          </mxGeometry>
        </mxCell>
        <mxCell id="y4W07gEEPv4VkjId5-DS-28" value="" style="edgeStyle=none;orthogonalLoop=1;jettySize=auto;html=1;rounded=0;startArrow=none;startFill=0;endArrow=block;endFill=1;exitX=0.852;exitY=0.5;exitDx=0;exitDy=0;exitPerimeter=0;entryX=0.513;entryY=1.032;entryDx=0;entryDy=0;entryPerimeter=0;fontFamily=Times New Roman;" parent="-kPq2Exw5MDwtVTnVc70-168" source="y4W07gEEPv4VkjId5-DS-11" target="y4W07gEEPv4VkjId5-DS-24" edge="1">
          <mxGeometry width="80" relative="1" as="geometry">
            <mxPoint x="230" y="194" as="sourcePoint" />
            <mxPoint x="290" y="320" as="targetPoint" />
            <Array as="points">
              <mxPoint x="250" y="195" />
              <mxPoint x="250" y="316" />
            </Array>
          </mxGeometry>
        </mxCell>
        <mxCell id="-kPq2Exw5MDwtVTnVc70-54" style="edgeStyle=orthogonalEdgeStyle;rounded=0;orthogonalLoop=1;jettySize=auto;html=1;entryX=0.5;entryY=0;entryDx=0;entryDy=0;endArrow=block;endFill=1;fontFamily=Times New Roman;" parent="-kPq2Exw5MDwtVTnVc70-168" source="y4W07gEEPv4VkjId5-DS-25" target="-kPq2Exw5MDwtVTnVc70-364" edge="1">
          <mxGeometry relative="1" as="geometry">
            <mxPoint x="528.2899999999997" y="125" as="targetPoint" />
          </mxGeometry>
        </mxCell>
        <mxCell id="-kPq2Exw5MDwtVTnVc70-42" value="" style="edgeStyle=orthogonalEdgeStyle;rounded=0;orthogonalLoop=1;jettySize=auto;html=1;endArrow=block;endFill=1;entryX=0.5;entryY=1;entryDx=0;entryDy=0;fontFamily=Times New Roman;" parent="-kPq2Exw5MDwtVTnVc70-168" source="y4W07gEEPv4VkjId5-DS-24" target="-kPq2Exw5MDwtVTnVc70-170" edge="1">
          <mxGeometry relative="1" as="geometry">
            <mxPoint x="420" y="280" as="targetPoint" />
          </mxGeometry>
        </mxCell>
        <mxCell id="-kPq2Exw5MDwtVTnVc70-46" value="" style="group;fontFamily=Times New Roman;" parent="-kPq2Exw5MDwtVTnVc70-168" vertex="1" connectable="0">
          <mxGeometry x="500.0043001811095" y="231.71430018110954" width="56.568542494923804" height="56.568542494923804" as="geometry" />
        </mxCell>
        <mxCell id="y4W07gEEPv4VkjId5-DS-44" style="edgeStyle=none;rounded=0;orthogonalLoop=1;jettySize=auto;html=1;exitX=0;exitY=1;exitDx=0;exitDy=0;strokeWidth=3;fontColor=#ffffff;startArrow=none;startFill=0;endArrow=none;endFill=0;fontFamily=Times New Roman;" parent="-kPq2Exw5MDwtVTnVc70-46" edge="1">
          <mxGeometry relative="1" as="geometry">
            <mxPoint x="17.072496383293924" y="39.49890325448695" as="targetPoint" />
            <Array as="points" />
            <mxPoint x="17.072496383293924" y="39.49890325448695" as="sourcePoint" />
          </mxGeometry>
        </mxCell>
        <mxCell id="-kPq2Exw5MDwtVTnVc70-16" value="" style="ellipse;whiteSpace=wrap;html=1;fillStyle=auto;strokeColor=#000000;fillColor=#ffffff;rotation=45;fontFamily=Times New Roman;" parent="-kPq2Exw5MDwtVTnVc70-46" vertex="1">
          <mxGeometry x="8.284271247461902" y="8.284271247461902" width="40" height="40" as="geometry" />
        </mxCell>
        <mxCell id="-kPq2Exw5MDwtVTnVc70-17" style="edgeStyle=none;rounded=0;orthogonalLoop=1;jettySize=auto;html=1;exitX=1;exitY=0;exitDx=0;exitDy=0;strokeWidth=3;fontColor=#ffffff;startArrow=none;startFill=0;endArrow=none;endFill=0;fontFamily=Times New Roman;" parent="-kPq2Exw5MDwtVTnVc70-46" source="-kPq2Exw5MDwtVTnVc70-16" target="-kPq2Exw5MDwtVTnVc70-16" edge="1">
          <mxGeometry relative="1" as="geometry" />
        </mxCell>
        <mxCell id="-kPq2Exw5MDwtVTnVc70-18" style="edgeStyle=none;rounded=0;orthogonalLoop=1;jettySize=auto;html=1;exitX=1;exitY=0;exitDx=0;exitDy=0;strokeWidth=3;fontColor=#ffffff;startArrow=none;startFill=0;endArrow=none;endFill=0;fontFamily=Times New Roman;" parent="-kPq2Exw5MDwtVTnVc70-46" source="-kPq2Exw5MDwtVTnVc70-16" target="-kPq2Exw5MDwtVTnVc70-16" edge="1">
          <mxGeometry relative="1" as="geometry" />
        </mxCell>
        <mxCell id="-kPq2Exw5MDwtVTnVc70-19" style="edgeStyle=none;rounded=0;orthogonalLoop=1;jettySize=auto;html=1;exitX=0;exitY=1;exitDx=0;exitDy=0;strokeWidth=3;fontColor=#ffffff;startArrow=none;startFill=0;endArrow=none;endFill=0;fontFamily=Times New Roman;" parent="-kPq2Exw5MDwtVTnVc70-46" source="-kPq2Exw5MDwtVTnVc70-16" target="-kPq2Exw5MDwtVTnVc70-16" edge="1">
          <mxGeometry relative="1" as="geometry">
            <mxPoint x="108.56998553317624" y="-25.43001446682382" as="targetPoint" />
            <Array as="points" />
          </mxGeometry>
        </mxCell>
        <mxCell id="-kPq2Exw5MDwtVTnVc70-20" style="edgeStyle=none;rounded=1;orthogonalLoop=1;jettySize=auto;html=1;entryX=0;entryY=1;entryDx=0;entryDy=0;strokeWidth=3;fontColor=#ffffff;startArrow=none;startFill=0;endArrow=none;endFill=0;fontFamily=Times New Roman;" parent="-kPq2Exw5MDwtVTnVc70-46" source="-kPq2Exw5MDwtVTnVc70-16" target="-kPq2Exw5MDwtVTnVc70-16" edge="1">
          <mxGeometry relative="1" as="geometry" />
        </mxCell>
        <mxCell id="-kPq2Exw5MDwtVTnVc70-44" value="" style="ellipse;whiteSpace=wrap;html=1;aspect=fixed;fillColor=#000000;fontFamily=Times New Roman;" parent="-kPq2Exw5MDwtVTnVc70-46" vertex="1">
          <mxGeometry x="24.78569981889052" y="24.785699818890464" width="7" height="7" as="geometry" />
        </mxCell>
        <mxCell id="-kPq2Exw5MDwtVTnVc70-52" value="" style="edgeStyle=orthogonalEdgeStyle;rounded=0;orthogonalLoop=1;jettySize=auto;html=1;endArrow=block;endFill=1;entryX=0.5;entryY=1;entryDx=0;entryDy=0;fontFamily=Times New Roman;" parent="-kPq2Exw5MDwtVTnVc70-168" source="-kPq2Exw5MDwtVTnVc70-16" edge="1">
          <mxGeometry relative="1" as="geometry">
            <mxPoint x="528.2899999999997" y="165" as="targetPoint" />
          </mxGeometry>
        </mxCell>
        <mxCell id="-kPq2Exw5MDwtVTnVc70-53" value="" style="edgeStyle=orthogonalEdgeStyle;rounded=0;orthogonalLoop=1;jettySize=auto;html=1;endArrow=block;endFill=1;entryX=0;entryY=1;entryDx=0;entryDy=0;fontFamily=Times New Roman;" parent="-kPq2Exw5MDwtVTnVc70-168" target="-kPq2Exw5MDwtVTnVc70-16" edge="1">
          <mxGeometry relative="1" as="geometry">
            <mxPoint x="439.9999999489796" y="259.9985714285717" as="sourcePoint" />
            <mxPoint x="500" y="260" as="targetPoint" />
          </mxGeometry>
        </mxCell>
        <mxCell id="-kPq2Exw5MDwtVTnVc70-67" style="edgeStyle=orthogonalEdgeStyle;rounded=0;orthogonalLoop=1;jettySize=auto;html=1;endArrow=block;endFill=1;fontFamily=Times New Roman;" parent="-kPq2Exw5MDwtVTnVc70-168" edge="1">
          <mxGeometry relative="1" as="geometry">
            <mxPoint x="620" y="145" as="targetPoint" />
            <mxPoint x="548.2899999999997" y="145" as="sourcePoint" />
          </mxGeometry>
        </mxCell>
        <mxCell id="-kPq2Exw5MDwtVTnVc70-73" value="" style="group;fillColor=#FFFFFF;fontFamily=Times New Roman;" parent="-kPq2Exw5MDwtVTnVc70-168" vertex="1" connectable="0">
          <mxGeometry x="690" y="92.5" width="50" height="105" as="geometry" />
        </mxCell>
        <mxCell id="-kPq2Exw5MDwtVTnVc70-69" value="" style="verticalLabelPosition=bottom;verticalAlign=top;html=1;shape=mxgraph.basic.rect;fillColor2=none;strokeWidth=1;size=20;indent=5;fillStyle=auto;rotation=90;fontFamily=Times New Roman;" parent="-kPq2Exw5MDwtVTnVc70-73" vertex="1">
          <mxGeometry x="-27.5" y="37.5" width="105" height="30" as="geometry" />
        </mxCell>
        <mxCell id="-kPq2Exw5MDwtVTnVc70-72" value="&lt;b&gt;LBR&lt;/b&gt;" style="text;html=1;align=center;verticalAlign=middle;resizable=0;points=[];autosize=1;strokeColor=none;fillColor=none;fontFamily=Times New Roman;" parent="-kPq2Exw5MDwtVTnVc70-73" vertex="1">
          <mxGeometry y="37.360000000000014" width="50" height="30" as="geometry" />
        </mxCell>
        <mxCell id="-kPq2Exw5MDwtVTnVc70-74" style="edgeStyle=orthogonalEdgeStyle;rounded=0;orthogonalLoop=1;jettySize=auto;html=1;endArrow=block;endFill=1;fontFamily=Times New Roman;" parent="-kPq2Exw5MDwtVTnVc70-168" target="-kPq2Exw5MDwtVTnVc70-69" edge="1">
          <mxGeometry relative="1" as="geometry">
            <mxPoint x="657.1428571428569" y="144.85809249469787" as="sourcePoint" />
          </mxGeometry>
        </mxCell>
        <mxCell id="-kPq2Exw5MDwtVTnVc70-75" value="" style="group;fontFamily=Times New Roman;" parent="-kPq2Exw5MDwtVTnVc70-168" vertex="1" connectable="0">
          <mxGeometry y="115" width="270" height="160" as="geometry" />
        </mxCell>
        <mxCell id="y4W07gEEPv4VkjId5-DS-1" value="" style="rounded=0;whiteSpace=wrap;html=1;strokeColor=#000000;fontFamily=Times New Roman;" parent="-kPq2Exw5MDwtVTnVc70-75" vertex="1">
          <mxGeometry x="60" y="10" width="30" height="140" as="geometry" />
        </mxCell>
        <mxCell id="y4W07gEEPv4VkjId5-DS-2" value="" style="rounded=0;whiteSpace=wrap;html=1;strokeColor=#000000;fontFamily=Times New Roman;" parent="-kPq2Exw5MDwtVTnVc70-75" vertex="1">
          <mxGeometry x="100" y="10" width="30" height="140" as="geometry" />
        </mxCell>
        <mxCell id="y4W07gEEPv4VkjId5-DS-3" value="" style="rounded=0;whiteSpace=wrap;html=1;strokeColor=#000000;fontFamily=Times New Roman;" parent="-kPq2Exw5MDwtVTnVc70-75" vertex="1">
          <mxGeometry x="140" y="10" width="30" height="140" as="geometry" />
        </mxCell>
        <mxCell id="y4W07gEEPv4VkjId5-DS-4" value="" style="rounded=0;whiteSpace=wrap;html=1;strokeColor=#000000;fontFamily=Times New Roman;" parent="-kPq2Exw5MDwtVTnVc70-75" vertex="1">
          <mxGeometry x="180" y="10" width="30" height="140" as="geometry" />
        </mxCell>
        <mxCell id="y4W07gEEPv4VkjId5-DS-11" value="" style="verticalLabelPosition=bottom;verticalAlign=top;html=1;shape=mxgraph.basic.polygon;polyCoords=[[0.2,0],[0.8,0],[0.85,0.13],[0.85,0.88],[0.8,1],[0.2,1],[0.15,0.88],[0.15,0.13]];polyline=0;strokeColor=#000000;dashed=1;opacity=90;fillStyle=hatch;fontFamily=Times New Roman;" parent="-kPq2Exw5MDwtVTnVc70-75" vertex="1">
          <mxGeometry width="270" height="160" as="geometry" />
        </mxCell>
        <mxCell id="-kPq2Exw5MDwtVTnVc70-91" value="&lt;font style=&quot;font-size: 26px;&quot;&gt;Y&lt;/font&gt;" style="text;html=1;align=center;verticalAlign=middle;resizable=0;points=[];autosize=1;strokeColor=none;fillColor=none;fontSize=22;fontFamily=Times New Roman;" parent="-kPq2Exw5MDwtVTnVc70-75" vertex="1">
          <mxGeometry y="55" width="40" height="40" as="geometry" />
        </mxCell>
        <mxCell id="-kPq2Exw5MDwtVTnVc70-68" style="edgeStyle=orthogonalEdgeStyle;rounded=0;orthogonalLoop=1;jettySize=auto;html=1;entryX=0;entryY=0;entryDx=0;entryDy=0;endArrow=block;endFill=1;fontFamily=Times New Roman;" parent="-kPq2Exw5MDwtVTnVc70-168" source="y4W07gEEPv4VkjId5-DS-11" edge="1">
          <mxGeometry relative="1" as="geometry">
            <mxPoint x="640" y="125.00000000000023" as="targetPoint" />
            <Array as="points">
              <mxPoint x="135" />
              <mxPoint x="640" />
            </Array>
          </mxGeometry>
        </mxCell>
        <mxCell id="-kPq2Exw5MDwtVTnVc70-85" value="&lt;font style=&quot;font-size: 22px;&quot;&gt;V&lt;sub&gt;y&lt;/sub&gt;&lt;/font&gt;" style="text;html=1;align=center;verticalAlign=middle;resizable=0;points=[];autosize=1;strokeColor=none;fillColor=none;fontFamily=Times New Roman;" parent="-kPq2Exw5MDwtVTnVc70-168" vertex="1">
          <mxGeometry x="400" y="35" width="50" height="40" as="geometry" />
        </mxCell>
        <mxCell id="-kPq2Exw5MDwtVTnVc70-86" value="&lt;font style=&quot;font-size: 22px;&quot;&gt;Q&lt;sub&gt;y&lt;/sub&gt;&lt;/font&gt;" style="text;html=1;align=center;verticalAlign=middle;resizable=0;points=[];autosize=1;strokeColor=none;fillColor=none;fontFamily=Times New Roman;" parent="-kPq2Exw5MDwtVTnVc70-168" vertex="1">
          <mxGeometry x="340" y="160" width="50" height="40" as="geometry" />
        </mxCell>
        <mxCell id="-kPq2Exw5MDwtVTnVc70-87" value="&lt;font style=&quot;font-size: 22px;&quot;&gt;V&lt;sub&gt;y&lt;/sub&gt;&lt;/font&gt;" style="text;html=1;align=center;verticalAlign=middle;resizable=0;points=[];autosize=1;strokeColor=none;fillColor=none;fontFamily=Times New Roman;" parent="-kPq2Exw5MDwtVTnVc70-168" vertex="1">
          <mxGeometry x="340" y="275" width="50" height="40" as="geometry" />
        </mxCell>
        <mxCell id="-kPq2Exw5MDwtVTnVc70-88" value="E&lt;sub&gt;y&lt;/sub&gt;" style="text;html=1;align=center;verticalAlign=middle;resizable=0;points=[];autosize=1;strokeColor=none;fillColor=none;fontSize=22;fontFamily=Times New Roman;" parent="-kPq2Exw5MDwtVTnVc70-168" vertex="1">
          <mxGeometry x="450" y="225" width="50" height="40" as="geometry" />
        </mxCell>
        <mxCell id="-kPq2Exw5MDwtVTnVc70-89" value="A&lt;sub&gt;y&lt;/sub&gt;" style="text;html=1;align=center;verticalAlign=middle;resizable=0;points=[];autosize=1;strokeColor=none;fillColor=none;fontSize=22;fontFamily=Times New Roman;" parent="-kPq2Exw5MDwtVTnVc70-168" vertex="1">
          <mxGeometry x="520" y="185" width="50" height="40" as="geometry" />
        </mxCell>
        <mxCell id="-kPq2Exw5MDwtVTnVc70-90" value="f&lt;span style=&quot;font-size: 18.3333px;&quot;&gt;y&lt;/span&gt;" style="text;html=1;align=center;verticalAlign=middle;resizable=0;points=[];autosize=1;strokeColor=none;fillColor=none;fontSize=22;fontFamily=Times New Roman;" parent="-kPq2Exw5MDwtVTnVc70-168" vertex="1">
          <mxGeometry x="561.5699999999999" y="110" width="40" height="40" as="geometry" />
        </mxCell>
        <mxCell id="-kPq2Exw5MDwtVTnVc70-102" value="&lt;b&gt;(B,C&lt;sub&gt;1&lt;/sub&gt;,N)&lt;/b&gt;" style="text;html=1;align=center;verticalAlign=middle;resizable=0;points=[];autosize=1;strokeColor=none;fillColor=none;fontSize=26;fontFamily=Times New Roman;" parent="-kPq2Exw5MDwtVTnVc70-168" vertex="1">
          <mxGeometry x="65" y="275" width="120" height="50" as="geometry" />
        </mxCell>
        <mxCell id="-kPq2Exw5MDwtVTnVc70-103" value="" style="group;fontFamily=Times New Roman;" parent="-kPq2Exw5MDwtVTnVc70-168" vertex="1" connectable="0">
          <mxGeometry x="730" y="65" width="285" height="160" as="geometry" />
        </mxCell>
        <mxCell id="-kPq2Exw5MDwtVTnVc70-76" value="" style="group;fontFamily=Times New Roman;" parent="-kPq2Exw5MDwtVTnVc70-103" vertex="1" connectable="0">
          <mxGeometry width="285" height="160" as="geometry" />
        </mxCell>
        <mxCell id="-kPq2Exw5MDwtVTnVc70-77" value="" style="rounded=0;whiteSpace=wrap;html=1;strokeColor=#000000;fontFamily=Times New Roman;" parent="-kPq2Exw5MDwtVTnVc70-76" vertex="1">
          <mxGeometry x="60" y="10" width="30" height="140" as="geometry" />
        </mxCell>
        <mxCell id="-kPq2Exw5MDwtVTnVc70-78" value="" style="rounded=0;whiteSpace=wrap;html=1;strokeColor=#000000;fontFamily=Times New Roman;" parent="-kPq2Exw5MDwtVTnVc70-76" vertex="1">
          <mxGeometry x="100" y="10" width="30" height="140" as="geometry" />
        </mxCell>
        <mxCell id="-kPq2Exw5MDwtVTnVc70-79" value="" style="rounded=0;whiteSpace=wrap;html=1;strokeColor=#000000;fontFamily=Times New Roman;" parent="-kPq2Exw5MDwtVTnVc70-76" vertex="1">
          <mxGeometry x="140" y="10" width="30" height="140" as="geometry" />
        </mxCell>
        <mxCell id="-kPq2Exw5MDwtVTnVc70-80" value="" style="rounded=0;whiteSpace=wrap;html=1;strokeColor=#000000;fontFamily=Times New Roman;" parent="-kPq2Exw5MDwtVTnVc70-76" vertex="1">
          <mxGeometry x="180" y="10" width="30" height="140" as="geometry" />
        </mxCell>
        <mxCell id="-kPq2Exw5MDwtVTnVc70-81" value="" style="verticalLabelPosition=bottom;verticalAlign=top;html=1;shape=mxgraph.basic.polygon;polyCoords=[[0.2,0],[0.8,0],[0.85,0.13],[0.85,0.88],[0.8,1],[0.2,1],[0.15,0.88],[0.15,0.13]];polyline=0;strokeColor=#000000;dashed=1;opacity=90;fillStyle=hatch;fontFamily=Times New Roman;" parent="-kPq2Exw5MDwtVTnVc70-76" vertex="1">
          <mxGeometry width="270" height="160" as="geometry" />
        </mxCell>
        <mxCell id="-kPq2Exw5MDwtVTnVc70-92" value="&lt;span style=&quot;font-size: 26px;&quot;&gt;F&lt;/span&gt;&lt;span style=&quot;font-size: 18.0556px;&quot;&gt;y&lt;/span&gt;" style="text;html=1;align=center;verticalAlign=middle;resizable=0;points=[];autosize=1;strokeColor=none;fillColor=none;fontSize=22;fontFamily=Times New Roman;" parent="-kPq2Exw5MDwtVTnVc70-76" vertex="1">
          <mxGeometry x="235" y="60" width="50" height="40" as="geometry" />
        </mxCell>
        <mxCell id="-kPq2Exw5MDwtVTnVc70-105" style="edgeStyle=orthogonalEdgeStyle;rounded=0;orthogonalLoop=1;jettySize=auto;html=1;fontSize=26;endArrow=block;endFill=1;fontFamily=Times New Roman;" parent="-kPq2Exw5MDwtVTnVc70-168" source="-kPq2Exw5MDwtVTnVc70-69" edge="1">
          <mxGeometry relative="1" as="geometry">
            <mxPoint x="770" y="145" as="targetPoint" />
          </mxGeometry>
        </mxCell>
        <mxCell id="-kPq2Exw5MDwtVTnVc70-219" value="" style="group" parent="-kPq2Exw5MDwtVTnVc70-168" vertex="1" connectable="0">
          <mxGeometry x="404.89799318018765" y="239.78976987548413" width="40.20609157826698" height="40.20609157826698" as="geometry" />
        </mxCell>
        <mxCell id="-kPq2Exw5MDwtVTnVc70-170" value="" style="ellipse;whiteSpace=wrap;html=1;fillStyle=auto;strokeColor=#000000;fillColor=#ffffff;fontFamily=Times New Roman;container=0;" parent="-kPq2Exw5MDwtVTnVc70-219" vertex="1">
          <mxGeometry x="0.1020068198123738" y="0.10023012451586055" width="40" height="40" as="geometry" />
        </mxCell>
        <mxCell id="-kPq2Exw5MDwtVTnVc70-171" style="edgeStyle=none;rounded=0;orthogonalLoop=1;jettySize=auto;html=1;exitX=1;exitY=0;exitDx=0;exitDy=0;strokeWidth=3;fontColor=#ffffff;startArrow=none;startFill=0;endArrow=none;endFill=0;fontFamily=Times New Roman;" parent="-kPq2Exw5MDwtVTnVc70-219" source="-kPq2Exw5MDwtVTnVc70-170" target="-kPq2Exw5MDwtVTnVc70-170" edge="1">
          <mxGeometry relative="1" as="geometry" />
        </mxCell>
        <mxCell id="-kPq2Exw5MDwtVTnVc70-172" style="edgeStyle=none;rounded=0;orthogonalLoop=1;jettySize=auto;html=1;exitX=1;exitY=0;exitDx=0;exitDy=0;strokeWidth=3;fontColor=#ffffff;startArrow=none;startFill=0;endArrow=none;endFill=0;fontFamily=Times New Roman;" parent="-kPq2Exw5MDwtVTnVc70-219" source="-kPq2Exw5MDwtVTnVc70-170" target="-kPq2Exw5MDwtVTnVc70-170" edge="1">
          <mxGeometry relative="1" as="geometry" />
        </mxCell>
        <mxCell id="-kPq2Exw5MDwtVTnVc70-173" style="edgeStyle=none;rounded=0;orthogonalLoop=1;jettySize=auto;html=1;exitX=0;exitY=1;exitDx=0;exitDy=0;strokeWidth=3;fontColor=#ffffff;startArrow=none;startFill=0;endArrow=none;endFill=0;fontFamily=Times New Roman;" parent="-kPq2Exw5MDwtVTnVc70-219" source="-kPq2Exw5MDwtVTnVc70-170" target="-kPq2Exw5MDwtVTnVc70-170" edge="1">
          <mxGeometry relative="1" as="geometry">
            <mxPoint x="45.816292534098096" y="2.957372981658807" as="targetPoint" />
            <Array as="points" />
          </mxGeometry>
        </mxCell>
        <mxCell id="-kPq2Exw5MDwtVTnVc70-174" style="edgeStyle=none;rounded=1;orthogonalLoop=1;jettySize=auto;html=1;entryX=0;entryY=1;entryDx=0;entryDy=0;strokeWidth=3;fontColor=#ffffff;startArrow=none;startFill=0;endArrow=none;endFill=0;fontFamily=Times New Roman;" parent="-kPq2Exw5MDwtVTnVc70-219" source="-kPq2Exw5MDwtVTnVc70-170" target="-kPq2Exw5MDwtVTnVc70-170" edge="1">
          <mxGeometry relative="1" as="geometry" />
        </mxCell>
        <mxCell id="-kPq2Exw5MDwtVTnVc70-217" value="" style="group;rotation=45;" parent="-kPq2Exw5MDwtVTnVc70-219" vertex="1" connectable="0">
          <mxGeometry x="5.888045789133486" y="5.888045789133514" width="28.42999999999995" height="28.42999999999995" as="geometry" />
        </mxCell>
        <mxCell id="-kPq2Exw5MDwtVTnVc70-211" value="" style="group;rotation=45;" parent="-kPq2Exw5MDwtVTnVc70-217" vertex="1" connectable="0">
          <mxGeometry x="13" width="3" height="28.42999999999995" as="geometry" />
        </mxCell>
        <mxCell id="-kPq2Exw5MDwtVTnVc70-212" value="" style="shape=delay;whiteSpace=wrap;html=1;fontFamily=宋体;fontSize=26;fillColor=#000000;rotation=135;container=0;" parent="-kPq2Exw5MDwtVTnVc70-211" vertex="1">
          <mxGeometry x="-11" y="18" width="14.43" height="3" as="geometry" />
        </mxCell>
        <mxCell id="-kPq2Exw5MDwtVTnVc70-213" value="" style="shape=delay;whiteSpace=wrap;html=1;fontFamily=宋体;fontSize=26;fillColor=#000000;rotation=135;container=0;flipH=1;" parent="-kPq2Exw5MDwtVTnVc70-211" vertex="1">
          <mxGeometry x="-1" y="8" width="14.43" height="3" as="geometry" />
        </mxCell>
        <mxCell id="-kPq2Exw5MDwtVTnVc70-214" value="" style="group;rotation=135;" parent="-kPq2Exw5MDwtVTnVc70-217" vertex="1" connectable="0">
          <mxGeometry x="13" width="3" height="28.42999999999995" as="geometry" />
        </mxCell>
        <mxCell id="-kPq2Exw5MDwtVTnVc70-215" value="" style="shape=delay;whiteSpace=wrap;html=1;fontFamily=宋体;fontSize=26;fillColor=#000000;rotation=225;container=0;" parent="-kPq2Exw5MDwtVTnVc70-214" vertex="1">
          <mxGeometry x="-11" y="8" width="14.43" height="3" as="geometry" />
        </mxCell>
        <mxCell id="-kPq2Exw5MDwtVTnVc70-216" value="" style="shape=delay;whiteSpace=wrap;html=1;fontFamily=宋体;fontSize=26;fillColor=#000000;rotation=225;container=0;flipH=1;" parent="-kPq2Exw5MDwtVTnVc70-214" vertex="1">
          <mxGeometry x="-1" y="18" width="14.43" height="3" as="geometry" />
        </mxCell>
        <mxCell id="-kPq2Exw5MDwtVTnVc70-362" value="A&lt;sub&gt;y&lt;/sub&gt;" style="text;html=1;align=center;verticalAlign=middle;resizable=0;points=[];autosize=1;strokeColor=none;fillColor=none;fontSize=22;fontFamily=Times New Roman;" parent="-kPq2Exw5MDwtVTnVc70-168" vertex="1">
          <mxGeometry x="640" y="50" width="50" height="40" as="geometry" />
        </mxCell>
        <mxCell id="-kPq2Exw5MDwtVTnVc70-363" value="" style="group" parent="-kPq2Exw5MDwtVTnVc70-168" vertex="1" connectable="0">
          <mxGeometry x="509.9979931801877" y="124.78976987548413" width="40.20609157826698" height="40.20609157826698" as="geometry" />
        </mxCell>
        <mxCell id="-kPq2Exw5MDwtVTnVc70-364" value="" style="ellipse;whiteSpace=wrap;html=1;fillStyle=auto;strokeColor=#000000;fillColor=#ffffff;fontFamily=Times New Roman;container=0;" parent="-kPq2Exw5MDwtVTnVc70-363" vertex="1">
          <mxGeometry x="0.1020068198123738" y="0.10023012451586055" width="40" height="40" as="geometry" />
        </mxCell>
        <mxCell id="-kPq2Exw5MDwtVTnVc70-365" style="edgeStyle=none;rounded=0;orthogonalLoop=1;jettySize=auto;html=1;exitX=1;exitY=0;exitDx=0;exitDy=0;strokeWidth=3;fontColor=#ffffff;startArrow=none;startFill=0;endArrow=none;endFill=0;fontFamily=Times New Roman;" parent="-kPq2Exw5MDwtVTnVc70-363" source="-kPq2Exw5MDwtVTnVc70-364" target="-kPq2Exw5MDwtVTnVc70-364" edge="1">
          <mxGeometry relative="1" as="geometry" />
        </mxCell>
        <mxCell id="-kPq2Exw5MDwtVTnVc70-366" style="edgeStyle=none;rounded=0;orthogonalLoop=1;jettySize=auto;html=1;exitX=1;exitY=0;exitDx=0;exitDy=0;strokeWidth=3;fontColor=#ffffff;startArrow=none;startFill=0;endArrow=none;endFill=0;fontFamily=Times New Roman;" parent="-kPq2Exw5MDwtVTnVc70-363" source="-kPq2Exw5MDwtVTnVc70-364" target="-kPq2Exw5MDwtVTnVc70-364" edge="1">
          <mxGeometry relative="1" as="geometry" />
        </mxCell>
        <mxCell id="-kPq2Exw5MDwtVTnVc70-367" style="edgeStyle=none;rounded=0;orthogonalLoop=1;jettySize=auto;html=1;exitX=0;exitY=1;exitDx=0;exitDy=0;strokeWidth=3;fontColor=#ffffff;startArrow=none;startFill=0;endArrow=none;endFill=0;fontFamily=Times New Roman;" parent="-kPq2Exw5MDwtVTnVc70-363" source="-kPq2Exw5MDwtVTnVc70-364" target="-kPq2Exw5MDwtVTnVc70-364" edge="1">
          <mxGeometry relative="1" as="geometry">
            <mxPoint x="45.816292534098096" y="2.957372981658807" as="targetPoint" />
            <Array as="points" />
          </mxGeometry>
        </mxCell>
        <mxCell id="-kPq2Exw5MDwtVTnVc70-368" style="edgeStyle=none;rounded=1;orthogonalLoop=1;jettySize=auto;html=1;entryX=0;entryY=1;entryDx=0;entryDy=0;strokeWidth=3;fontColor=#ffffff;startArrow=none;startFill=0;endArrow=none;endFill=0;fontFamily=Times New Roman;" parent="-kPq2Exw5MDwtVTnVc70-363" source="-kPq2Exw5MDwtVTnVc70-364" target="-kPq2Exw5MDwtVTnVc70-364" edge="1">
          <mxGeometry relative="1" as="geometry" />
        </mxCell>
        <mxCell id="-kPq2Exw5MDwtVTnVc70-369" value="" style="group;rotation=45;" parent="-kPq2Exw5MDwtVTnVc70-363" vertex="1" connectable="0">
          <mxGeometry x="5.888045789133486" y="5.888045789133514" width="28.42999999999995" height="28.42999999999995" as="geometry" />
        </mxCell>
        <mxCell id="-kPq2Exw5MDwtVTnVc70-370" value="" style="group;rotation=45;" parent="-kPq2Exw5MDwtVTnVc70-369" vertex="1" connectable="0">
          <mxGeometry x="13" width="3" height="28.42999999999995" as="geometry" />
        </mxCell>
        <mxCell id="-kPq2Exw5MDwtVTnVc70-371" value="" style="shape=delay;whiteSpace=wrap;html=1;fontFamily=宋体;fontSize=26;fillColor=#000000;rotation=135;container=0;" parent="-kPq2Exw5MDwtVTnVc70-370" vertex="1">
          <mxGeometry x="-11" y="18" width="14.43" height="3" as="geometry" />
        </mxCell>
        <mxCell id="-kPq2Exw5MDwtVTnVc70-372" value="" style="shape=delay;whiteSpace=wrap;html=1;fontFamily=宋体;fontSize=26;fillColor=#000000;rotation=135;container=0;flipH=1;" parent="-kPq2Exw5MDwtVTnVc70-370" vertex="1">
          <mxGeometry x="-1" y="8" width="14.43" height="3" as="geometry" />
        </mxCell>
        <mxCell id="-kPq2Exw5MDwtVTnVc70-373" value="" style="group;rotation=135;" parent="-kPq2Exw5MDwtVTnVc70-369" vertex="1" connectable="0">
          <mxGeometry x="13" width="3" height="28.42999999999995" as="geometry" />
        </mxCell>
        <mxCell id="-kPq2Exw5MDwtVTnVc70-374" value="" style="shape=delay;whiteSpace=wrap;html=1;fontFamily=宋体;fontSize=26;fillColor=#000000;rotation=225;container=0;" parent="-kPq2Exw5MDwtVTnVc70-373" vertex="1">
          <mxGeometry x="-11" y="8" width="14.43" height="3" as="geometry" />
        </mxCell>
        <mxCell id="-kPq2Exw5MDwtVTnVc70-375" value="" style="shape=delay;whiteSpace=wrap;html=1;fontFamily=宋体;fontSize=26;fillColor=#000000;rotation=225;container=0;flipH=1;" parent="-kPq2Exw5MDwtVTnVc70-373" vertex="1">
          <mxGeometry x="-1" y="18" width="14.43" height="3" as="geometry" />
        </mxCell>
        <mxCell id="-kPq2Exw5MDwtVTnVc70-381" value="" style="group" parent="-kPq2Exw5MDwtVTnVc70-168" vertex="1" connectable="0">
          <mxGeometry x="620" y="124.88999999999999" width="40" height="40" as="geometry" />
        </mxCell>
        <mxCell id="-kPq2Exw5MDwtVTnVc70-382" value="" style="ellipse;whiteSpace=wrap;html=1;fillStyle=auto;strokeColor=#000000;fillColor=#ffffff;fontFamily=Times New Roman;container=0;" parent="-kPq2Exw5MDwtVTnVc70-381" vertex="1">
          <mxGeometry width="40" height="40" as="geometry" />
        </mxCell>
        <mxCell id="-kPq2Exw5MDwtVTnVc70-383" style="edgeStyle=none;rounded=0;orthogonalLoop=1;jettySize=auto;html=1;exitX=1;exitY=0;exitDx=0;exitDy=0;strokeWidth=3;fontColor=#ffffff;startArrow=none;startFill=0;endArrow=none;endFill=0;fontFamily=Times New Roman;" parent="-kPq2Exw5MDwtVTnVc70-381" source="-kPq2Exw5MDwtVTnVc70-382" target="-kPq2Exw5MDwtVTnVc70-382" edge="1">
          <mxGeometry relative="1" as="geometry" />
        </mxCell>
        <mxCell id="-kPq2Exw5MDwtVTnVc70-384" style="edgeStyle=none;rounded=0;orthogonalLoop=1;jettySize=auto;html=1;exitX=1;exitY=0;exitDx=0;exitDy=0;strokeWidth=3;fontColor=#ffffff;startArrow=none;startFill=0;endArrow=none;endFill=0;fontFamily=Times New Roman;" parent="-kPq2Exw5MDwtVTnVc70-381" source="-kPq2Exw5MDwtVTnVc70-382" target="-kPq2Exw5MDwtVTnVc70-382" edge="1">
          <mxGeometry relative="1" as="geometry" />
        </mxCell>
        <mxCell id="-kPq2Exw5MDwtVTnVc70-385" style="edgeStyle=none;rounded=0;orthogonalLoop=1;jettySize=auto;html=1;exitX=0;exitY=1;exitDx=0;exitDy=0;strokeWidth=3;fontColor=#ffffff;startArrow=none;startFill=0;endArrow=none;endFill=0;fontFamily=Times New Roman;" parent="-kPq2Exw5MDwtVTnVc70-381" source="-kPq2Exw5MDwtVTnVc70-382" target="-kPq2Exw5MDwtVTnVc70-382" edge="1">
          <mxGeometry relative="1" as="geometry">
            <mxPoint x="-319.2857142857143" y="-317.1428571428571" as="targetPoint" />
            <Array as="points" />
          </mxGeometry>
        </mxCell>
        <mxCell id="-kPq2Exw5MDwtVTnVc70-386" style="edgeStyle=none;rounded=1;orthogonalLoop=1;jettySize=auto;html=1;entryX=0;entryY=1;entryDx=0;entryDy=0;strokeWidth=3;fontColor=#ffffff;startArrow=none;startFill=0;endArrow=none;endFill=0;fontFamily=Times New Roman;" parent="-kPq2Exw5MDwtVTnVc70-381" source="-kPq2Exw5MDwtVTnVc70-382" target="-kPq2Exw5MDwtVTnVc70-382" edge="1">
          <mxGeometry relative="1" as="geometry" />
        </mxCell>
        <mxCell id="-kPq2Exw5MDwtVTnVc70-387" value="" style="group;rotation=90;" parent="-kPq2Exw5MDwtVTnVc70-381" vertex="1" connectable="0">
          <mxGeometry x="18.781038969321116" y="5.777815664617606" width="3" height="28.42999999999995" as="geometry" />
        </mxCell>
        <mxCell id="-kPq2Exw5MDwtVTnVc70-388" value="" style="shape=delay;whiteSpace=wrap;html=1;fontFamily=宋体;fontSize=26;fillColor=#000000;rotation=180;container=0;" parent="-kPq2Exw5MDwtVTnVc70-387" vertex="1">
          <mxGeometry x="-13" y="13" width="14.43" height="3" as="geometry" />
        </mxCell>
        <mxCell id="-kPq2Exw5MDwtVTnVc70-389" value="" style="shape=delay;whiteSpace=wrap;html=1;fontFamily=宋体;fontSize=26;fillColor=#000000;rotation=180;container=0;flipH=1;" parent="-kPq2Exw5MDwtVTnVc70-387" vertex="1">
          <mxGeometry x="1" y="13" width="14.43" height="3" as="geometry" />
        </mxCell>
        <mxCell id="-kPq2Exw5MDwtVTnVc70-144" value="&lt;font face=&quot;宋体&quot;&gt;矩阵乘法&lt;/font&gt;" style="text;html=1;align=center;verticalAlign=middle;resizable=0;points=[];autosize=1;strokeColor=none;fillColor=none;fontSize=26;fontFamily=Times New Roman;" parent="-kPq2Exw5MDwtVTnVc70-168" vertex="1">
          <mxGeometry x="120.21000000000001" y="386.56" width="130" height="50" as="geometry" />
        </mxCell>
        <mxCell id="-kPq2Exw5MDwtVTnVc70-167" value="" style="group" parent="-kPq2Exw5MDwtVTnVc70-168" vertex="1" connectable="0">
          <mxGeometry x="391.9257287525381" y="379.9957287525381" width="168.2842712474619" height="56.568542494923804" as="geometry" />
        </mxCell>
        <mxCell id="-kPq2Exw5MDwtVTnVc70-156" value="&lt;font face=&quot;宋体&quot;&gt;矩阵减法&lt;/font&gt;" style="text;html=1;align=center;verticalAlign=middle;resizable=0;points=[];autosize=1;strokeColor=none;fillColor=none;fontSize=26;fontFamily=Times New Roman;" parent="-kPq2Exw5MDwtVTnVc70-167" vertex="1">
          <mxGeometry x="38.2842712474619" y="3.284271247461902" width="130" height="50" as="geometry" />
        </mxCell>
        <mxCell id="-kPq2Exw5MDwtVTnVc70-390" value="" style="group" parent="-kPq2Exw5MDwtVTnVc70-167" vertex="1" connectable="0">
          <mxGeometry x="0.004271247461902661" y="8.284271247461875" width="40" height="40" as="geometry" />
        </mxCell>
        <mxCell id="-kPq2Exw5MDwtVTnVc70-391" value="" style="ellipse;whiteSpace=wrap;html=1;fillStyle=auto;strokeColor=#000000;fillColor=#ffffff;fontFamily=Times New Roman;container=0;" parent="-kPq2Exw5MDwtVTnVc70-390" vertex="1">
          <mxGeometry width="40" height="40" as="geometry" />
        </mxCell>
        <mxCell id="-kPq2Exw5MDwtVTnVc70-392" style="edgeStyle=none;rounded=0;orthogonalLoop=1;jettySize=auto;html=1;exitX=1;exitY=0;exitDx=0;exitDy=0;strokeWidth=3;fontColor=#ffffff;startArrow=none;startFill=0;endArrow=none;endFill=0;fontFamily=Times New Roman;" parent="-kPq2Exw5MDwtVTnVc70-390" source="-kPq2Exw5MDwtVTnVc70-391" target="-kPq2Exw5MDwtVTnVc70-391" edge="1">
          <mxGeometry relative="1" as="geometry" />
        </mxCell>
        <mxCell id="-kPq2Exw5MDwtVTnVc70-393" style="edgeStyle=none;rounded=0;orthogonalLoop=1;jettySize=auto;html=1;exitX=1;exitY=0;exitDx=0;exitDy=0;strokeWidth=3;fontColor=#ffffff;startArrow=none;startFill=0;endArrow=none;endFill=0;fontFamily=Times New Roman;" parent="-kPq2Exw5MDwtVTnVc70-390" source="-kPq2Exw5MDwtVTnVc70-391" target="-kPq2Exw5MDwtVTnVc70-391" edge="1">
          <mxGeometry relative="1" as="geometry" />
        </mxCell>
        <mxCell id="-kPq2Exw5MDwtVTnVc70-394" style="edgeStyle=none;rounded=0;orthogonalLoop=1;jettySize=auto;html=1;exitX=0;exitY=1;exitDx=0;exitDy=0;strokeWidth=3;fontColor=#ffffff;startArrow=none;startFill=0;endArrow=none;endFill=0;fontFamily=Times New Roman;" parent="-kPq2Exw5MDwtVTnVc70-390" source="-kPq2Exw5MDwtVTnVc70-391" target="-kPq2Exw5MDwtVTnVc70-391" edge="1">
          <mxGeometry relative="1" as="geometry">
            <mxPoint x="-319.2857142857143" y="-317.1428571428571" as="targetPoint" />
            <Array as="points" />
          </mxGeometry>
        </mxCell>
        <mxCell id="-kPq2Exw5MDwtVTnVc70-395" style="edgeStyle=none;rounded=1;orthogonalLoop=1;jettySize=auto;html=1;entryX=0;entryY=1;entryDx=0;entryDy=0;strokeWidth=3;fontColor=#ffffff;startArrow=none;startFill=0;endArrow=none;endFill=0;fontFamily=Times New Roman;" parent="-kPq2Exw5MDwtVTnVc70-390" source="-kPq2Exw5MDwtVTnVc70-391" target="-kPq2Exw5MDwtVTnVc70-391" edge="1">
          <mxGeometry relative="1" as="geometry" />
        </mxCell>
        <mxCell id="-kPq2Exw5MDwtVTnVc70-396" value="" style="group;rotation=90;" parent="-kPq2Exw5MDwtVTnVc70-390" vertex="1" connectable="0">
          <mxGeometry x="18.781038969321116" y="5.777815664617606" width="3" height="28.42999999999995" as="geometry" />
        </mxCell>
        <mxCell id="-kPq2Exw5MDwtVTnVc70-397" value="" style="shape=delay;whiteSpace=wrap;html=1;fontFamily=宋体;fontSize=26;fillColor=#000000;rotation=180;container=0;" parent="-kPq2Exw5MDwtVTnVc70-396" vertex="1">
          <mxGeometry x="-13" y="13" width="14.43" height="3" as="geometry" />
        </mxCell>
        <mxCell id="-kPq2Exw5MDwtVTnVc70-398" value="" style="shape=delay;whiteSpace=wrap;html=1;fontFamily=宋体;fontSize=26;fillColor=#000000;rotation=180;container=0;flipH=1;" parent="-kPq2Exw5MDwtVTnVc70-396" vertex="1">
          <mxGeometry x="1" y="13" width="14.43" height="3" as="geometry" />
        </mxCell>
        <mxCell id="-kPq2Exw5MDwtVTnVc70-157" value="" style="group;fontFamily=Times New Roman;" parent="-kPq2Exw5MDwtVTnVc70-168" vertex="1" connectable="0">
          <mxGeometry x="665.3143001811096" y="381.56430018110956" width="56.568542494923804" height="56.568542494923804" as="geometry" />
        </mxCell>
        <mxCell id="-kPq2Exw5MDwtVTnVc70-158" style="edgeStyle=none;rounded=0;orthogonalLoop=1;jettySize=auto;html=1;exitX=0;exitY=1;exitDx=0;exitDy=0;strokeWidth=3;fontColor=#ffffff;startArrow=none;startFill=0;endArrow=none;endFill=0;fontFamily=Times New Roman;" parent="-kPq2Exw5MDwtVTnVc70-157" edge="1">
          <mxGeometry relative="1" as="geometry">
            <mxPoint x="17.072496383293924" y="39.49890325448695" as="targetPoint" />
            <Array as="points" />
            <mxPoint x="17.072496383293924" y="39.49890325448695" as="sourcePoint" />
          </mxGeometry>
        </mxCell>
        <mxCell id="-kPq2Exw5MDwtVTnVc70-159" value="" style="ellipse;whiteSpace=wrap;html=1;fillStyle=auto;strokeColor=#000000;fillColor=#ffffff;rotation=45;fontFamily=Times New Roman;" parent="-kPq2Exw5MDwtVTnVc70-157" vertex="1">
          <mxGeometry x="8.284271247461902" y="8.284271247461902" width="40" height="40" as="geometry" />
        </mxCell>
        <mxCell id="-kPq2Exw5MDwtVTnVc70-160" style="edgeStyle=none;rounded=0;orthogonalLoop=1;jettySize=auto;html=1;exitX=1;exitY=0;exitDx=0;exitDy=0;strokeWidth=3;fontColor=#ffffff;startArrow=none;startFill=0;endArrow=none;endFill=0;fontFamily=Times New Roman;" parent="-kPq2Exw5MDwtVTnVc70-157" source="-kPq2Exw5MDwtVTnVc70-159" target="-kPq2Exw5MDwtVTnVc70-159" edge="1">
          <mxGeometry relative="1" as="geometry" />
        </mxCell>
        <mxCell id="-kPq2Exw5MDwtVTnVc70-161" style="edgeStyle=none;rounded=0;orthogonalLoop=1;jettySize=auto;html=1;exitX=1;exitY=0;exitDx=0;exitDy=0;strokeWidth=3;fontColor=#ffffff;startArrow=none;startFill=0;endArrow=none;endFill=0;fontFamily=Times New Roman;" parent="-kPq2Exw5MDwtVTnVc70-157" source="-kPq2Exw5MDwtVTnVc70-159" target="-kPq2Exw5MDwtVTnVc70-159" edge="1">
          <mxGeometry relative="1" as="geometry" />
        </mxCell>
        <mxCell id="-kPq2Exw5MDwtVTnVc70-162" style="edgeStyle=none;rounded=0;orthogonalLoop=1;jettySize=auto;html=1;exitX=0;exitY=1;exitDx=0;exitDy=0;strokeWidth=3;fontColor=#ffffff;startArrow=none;startFill=0;endArrow=none;endFill=0;fontFamily=Times New Roman;" parent="-kPq2Exw5MDwtVTnVc70-157" source="-kPq2Exw5MDwtVTnVc70-159" target="-kPq2Exw5MDwtVTnVc70-159" edge="1">
          <mxGeometry relative="1" as="geometry">
            <mxPoint x="108.56998553317624" y="-25.43001446682382" as="targetPoint" />
            <Array as="points" />
          </mxGeometry>
        </mxCell>
        <mxCell id="-kPq2Exw5MDwtVTnVc70-163" style="edgeStyle=none;rounded=1;orthogonalLoop=1;jettySize=auto;html=1;entryX=0;entryY=1;entryDx=0;entryDy=0;strokeWidth=3;fontColor=#ffffff;startArrow=none;startFill=0;endArrow=none;endFill=0;fontFamily=Times New Roman;" parent="-kPq2Exw5MDwtVTnVc70-157" source="-kPq2Exw5MDwtVTnVc70-159" target="-kPq2Exw5MDwtVTnVc70-159" edge="1">
          <mxGeometry relative="1" as="geometry" />
        </mxCell>
        <mxCell id="-kPq2Exw5MDwtVTnVc70-164" value="" style="ellipse;whiteSpace=wrap;html=1;aspect=fixed;fillColor=#000000;fontFamily=Times New Roman;" parent="-kPq2Exw5MDwtVTnVc70-157" vertex="1">
          <mxGeometry x="24.78569981889052" y="24.785699818890464" width="7" height="7" as="geometry" />
        </mxCell>
        <mxCell id="-kPq2Exw5MDwtVTnVc70-411" value="" style="group" parent="-kPq2Exw5MDwtVTnVc70-168" vertex="1" connectable="0">
          <mxGeometry x="79.99999999999966" y="391.45999999999987" width="40.20609157826698" height="40.20609157826698" as="geometry" />
        </mxCell>
        <mxCell id="-kPq2Exw5MDwtVTnVc70-412" value="" style="ellipse;whiteSpace=wrap;html=1;fillStyle=auto;strokeColor=#000000;fillColor=#ffffff;fontFamily=Times New Roman;container=0;" parent="-kPq2Exw5MDwtVTnVc70-411" vertex="1">
          <mxGeometry x="0.1020068198123738" y="0.10023012451586055" width="40" height="40" as="geometry" />
        </mxCell>
        <mxCell id="-kPq2Exw5MDwtVTnVc70-413" style="edgeStyle=none;rounded=0;orthogonalLoop=1;jettySize=auto;html=1;exitX=1;exitY=0;exitDx=0;exitDy=0;strokeWidth=3;fontColor=#ffffff;startArrow=none;startFill=0;endArrow=none;endFill=0;fontFamily=Times New Roman;" parent="-kPq2Exw5MDwtVTnVc70-411" source="-kPq2Exw5MDwtVTnVc70-412" target="-kPq2Exw5MDwtVTnVc70-412" edge="1">
          <mxGeometry relative="1" as="geometry" />
        </mxCell>
        <mxCell id="-kPq2Exw5MDwtVTnVc70-414" style="edgeStyle=none;rounded=0;orthogonalLoop=1;jettySize=auto;html=1;exitX=1;exitY=0;exitDx=0;exitDy=0;strokeWidth=3;fontColor=#ffffff;startArrow=none;startFill=0;endArrow=none;endFill=0;fontFamily=Times New Roman;" parent="-kPq2Exw5MDwtVTnVc70-411" source="-kPq2Exw5MDwtVTnVc70-412" target="-kPq2Exw5MDwtVTnVc70-412" edge="1">
          <mxGeometry relative="1" as="geometry" />
        </mxCell>
        <mxCell id="-kPq2Exw5MDwtVTnVc70-415" style="edgeStyle=none;rounded=0;orthogonalLoop=1;jettySize=auto;html=1;exitX=0;exitY=1;exitDx=0;exitDy=0;strokeWidth=3;fontColor=#ffffff;startArrow=none;startFill=0;endArrow=none;endFill=0;fontFamily=Times New Roman;" parent="-kPq2Exw5MDwtVTnVc70-411" source="-kPq2Exw5MDwtVTnVc70-412" target="-kPq2Exw5MDwtVTnVc70-412" edge="1">
          <mxGeometry relative="1" as="geometry">
            <mxPoint x="45.816292534098096" y="2.957372981658807" as="targetPoint" />
            <Array as="points" />
          </mxGeometry>
        </mxCell>
        <mxCell id="-kPq2Exw5MDwtVTnVc70-416" style="edgeStyle=none;rounded=1;orthogonalLoop=1;jettySize=auto;html=1;entryX=0;entryY=1;entryDx=0;entryDy=0;strokeWidth=3;fontColor=#ffffff;startArrow=none;startFill=0;endArrow=none;endFill=0;fontFamily=Times New Roman;" parent="-kPq2Exw5MDwtVTnVc70-411" source="-kPq2Exw5MDwtVTnVc70-412" target="-kPq2Exw5MDwtVTnVc70-412" edge="1">
          <mxGeometry relative="1" as="geometry" />
        </mxCell>
        <mxCell id="-kPq2Exw5MDwtVTnVc70-417" value="" style="group;rotation=45;" parent="-kPq2Exw5MDwtVTnVc70-411" vertex="1" connectable="0">
          <mxGeometry x="5.888045789133486" y="5.888045789133514" width="28.42999999999995" height="28.42999999999995" as="geometry" />
        </mxCell>
        <mxCell id="-kPq2Exw5MDwtVTnVc70-418" value="" style="group;rotation=45;" parent="-kPq2Exw5MDwtVTnVc70-417" vertex="1" connectable="0">
          <mxGeometry x="13" width="3" height="28.42999999999995" as="geometry" />
        </mxCell>
        <mxCell id="-kPq2Exw5MDwtVTnVc70-419" value="" style="shape=delay;whiteSpace=wrap;html=1;fontFamily=宋体;fontSize=26;fillColor=#000000;rotation=135;container=0;" parent="-kPq2Exw5MDwtVTnVc70-418" vertex="1">
          <mxGeometry x="-11" y="18" width="14.43" height="3" as="geometry" />
        </mxCell>
        <mxCell id="-kPq2Exw5MDwtVTnVc70-420" value="" style="shape=delay;whiteSpace=wrap;html=1;fontFamily=宋体;fontSize=26;fillColor=#000000;rotation=135;container=0;flipH=1;" parent="-kPq2Exw5MDwtVTnVc70-418" vertex="1">
          <mxGeometry x="-1" y="8" width="14.43" height="3" as="geometry" />
        </mxCell>
        <mxCell id="-kPq2Exw5MDwtVTnVc70-421" value="" style="group;rotation=135;" parent="-kPq2Exw5MDwtVTnVc70-417" vertex="1" connectable="0">
          <mxGeometry x="13" width="3" height="28.42999999999995" as="geometry" />
        </mxCell>
        <mxCell id="-kPq2Exw5MDwtVTnVc70-422" value="" style="shape=delay;whiteSpace=wrap;html=1;fontFamily=宋体;fontSize=26;fillColor=#000000;rotation=225;container=0;" parent="-kPq2Exw5MDwtVTnVc70-421" vertex="1">
          <mxGeometry x="-11" y="8" width="14.43" height="3" as="geometry" />
        </mxCell>
        <mxCell id="-kPq2Exw5MDwtVTnVc70-423" value="" style="shape=delay;whiteSpace=wrap;html=1;fontFamily=宋体;fontSize=26;fillColor=#000000;rotation=225;container=0;flipH=1;" parent="-kPq2Exw5MDwtVTnVc70-421" vertex="1">
          <mxGeometry x="-1" y="18" width="14.43" height="3" as="geometry" />
        </mxCell>
        <mxCell id="-kPq2Exw5MDwtVTnVc70-165" value="softmax + L1&lt;font face=&quot;宋体&quot;&gt;正则化&lt;/font&gt;" style="text;html=1;align=center;verticalAlign=middle;resizable=0;points=[];autosize=1;strokeColor=none;fillColor=none;fontSize=26;fontFamily=Times New Roman;" parent="-kPq2Exw5MDwtVTnVc70-168" vertex="1">
          <mxGeometry x="715.2065701212273" y="391.5558285345604" width="240" height="40" as="geometry" />
        </mxCell>
      </root>
    </mxGraphModel>
  </diagram>
</mxfile>
